<svg width="298" height="8" viewBox="0 0 298 8" fill="none" xmlns="http://www.w3.org/2000/svg">
<path d="M297.443 5.33445L292.009 5.49123C286.575 5.64801 275.46 5.96252 264.59 5.46202C253.472 4.96248 242.597 3.64793 231.477 2.60568C220.604 1.56248 209.485 0.79159 198.617 0.96947C187.749 1.14735 176.637 2.27592 165.773 3.53921C154.662 4.80346 143.798 6.20242 132.684 6.65261C121.817 7.10185 110.699 6.60231 99.8265 5.83045C88.9545 5.0586 77.8344 4.01636 66.9613 2.97316C55.8412 1.93091 44.9682 0.88771 33.8544 1.47358C22.9876 2.05849 11.8802 4.27246 6.45001 5.37897L1.0198 6.48548" stroke="#B39F55"/>
</svg>
