<svg width="1402" height="61" viewBox="0 0 1402 61" fill="none" xmlns="http://www.w3.org/2000/svg">
<path d="M1401.01 47.884L1375.35 49.3565C1349.69 50.829 1297.21 53.7786 1245.86 48.4864C1193.35 43.1987 1141.97 29.6693 1089.43 18.8902C1038.06 8.10648 985.537 0.0730721 934.216 1.64525C882.895 3.21743 830.445 14.4042 779.167 26.9594C726.722 39.5191 675.449 53.4471 622.972 57.7696C571.662 62.0875 519.148 56.7999 467.79 48.7619C416.431 40.724 363.896 29.9448 312.527 19.1612C259.992 8.382 208.623 -2.40168 156.151 3.29364C104.846 8.98444 52.4386 31.1542 26.8181 42.2369L1.19762 53.3195" stroke="#B39F55" stroke-width="2"/>
</svg>
