<svg width="1405" height="129" viewBox="0 0 1405 129" fill="none" xmlns="http://www.w3.org/2000/svg">
<path d="M1404.01 50.8845L1378.35 52.357C1352.69 53.8295 1300.21 56.7791 1248.86 51.4869C1196.35 46.1992 1144.97 32.6698 1092.43 21.8906C1041.06 11.107 988.538 3.07356 937.217 4.64574C885.896 6.21791 833.446 17.4047 782.167 29.9599C729.723 42.5196 678.45 56.4476 625.973 60.7701C574.662 65.088 522.148 59.8004 470.79 51.7624C419.432 43.7245 366.896 32.9453 315.527 22.1616C262.992 11.3825 211.623 0.598803 159.152 6.29413C107.847 11.9849 55.439 34.1547 29.8185 45.2374L4.19799 56.32" stroke="#B39F55" stroke-width="2"/>
<path d="M1401.01 114.884L1375.35 116.357C1349.69 117.83 1297.21 120.779 1245.86 115.487C1193.35 110.199 1141.97 96.6698 1089.43 85.8906C1038.06 75.107 985.538 67.0736 934.217 68.6457C882.896 70.2179 830.446 81.4047 779.167 93.9599C726.723 106.52 675.45 120.448 622.973 124.77C571.662 129.088 519.148 123.8 467.79 115.762C416.432 107.724 363.896 96.9453 312.527 86.1616C259.992 75.3825 208.623 64.5988 156.152 70.2941C104.847 75.9849 52.439 98.1547 26.8185 109.237L1.19799 120.32" stroke="#B39F55" stroke-width="2"/>
</svg>
