<?xml version="1.0" encoding="UTF-8"?> <svg xmlns="http://www.w3.org/2000/svg" id="Layer_1" data-name="Layer 1" viewBox="0 0 178 188"> <defs> <style>.cls-1{fill:#fff;}</style> </defs> <path class="cls-1" d="M110.1,73.3c.3-1.9-.5-2.5-2.4-2.7-1.7-.2-3.3-.3-5-.6-.9-.1-1.4.2-1.6.7a12.74,12.74,0,0,1,1.6,2.5c.9,2.3,1.7,4.6,2.6,7.2C108.2,78.4,109.7,76.1,110.1,73.3Zm67.7,56.1-1.8-.3c-2.4-.5-4.9-.8-7.2-1.5a14,14,0,0,1-10.5-10.1c-2.3-7.8-4.5-15.7-6.8-23.5a2,2,0,0,1,0-1.1c0-1.3.1-2.6,0-3.9a6.54,6.54,0,0,1,.9-4.9,80.49,80.49,0,0,0,6.8-11.8,15.16,15.16,0,0,0,1.1-9.8c-.4-2.2-.9-4.4-1.4-6.5a4.67,4.67,0,0,0-.5-1,4.1,4.1,0,0,0-5-.8,18.51,18.51,0,0,0-7.4,8.7c-.9,2.2-1.5,4.6-2.7,6.6a25.47,25.47,0,0,0-3.2,9.5c-.2,1-.1,2.1-.2,3.1-.4,4.1-2,8.1-1.6,12.3a7.45,7.45,0,0,1-2.8,7,23.31,23.31,0,0,0,.2-5.3c-.2-2.8,0-5.6-.1-8.4,0-2.1-.1-4.2-.2-6.3-.2-2.5-.3-4.9-.7-7.4s-1-4.7-1.4-7.1-1-4.8-1.4-7.3c-.2-1-.4-1.9-.6-2.9-.4-1.9-.7-3.9-1.1-5.8a17.18,17.18,0,0,0-1.1-2.9c-1.1-3.3-2.2-6.7-3.4-10-1-2.5-2.2-5-3.3-7.4-1.2-2.7-2.4-5.4-3.8-8-.8-1.6-1.8-3.1-2.7-4.7-.4-.7,0-1,.7-1.1h1.3c-.3-.6-.4-1.2-.7-1.3-1.4-.7-2.1-2-3.2-2.9a27.15,27.15,0,0,1-4.1-4.2c-.6-.9-1.8-1.4-2.2-2.3-.5-1.1-1.5-1.4-2.4-1.9-.4-.2-.5-.8-.7-1.2.1-.1.1-.2.2-.3h-2.6a1.27,1.27,0,0,1-.6-.1A14.62,14.62,0,0,1,99.7,1,1.84,1.84,0,0,0,97.2.3L85.5,4.5C80.2,6.4,75.4,9,71.7,13.4c-3.2,3.8-6.5,7.4-9.8,11.2-.9-1.1-1.7-1-2.6.5a27,27,0,0,0-3.4,8.4c-.5,2.7-1.5,5.2-2.2,7.8-1.1,4.5-2,9.1-2.9,13.7-.7,3.7-1.4,7.4-2,11.1-.4,2.7-.7,5.5-1.1,8.2-.3,2-.6,4-.8,6-.2,1.8-.2,3.6-.4,5.4-.3,3.6-.8,7.1-1,10.7-.2,4.1-.2,8.2-.4,12.4v.1c-1.6,1.5-3.1,3.1-4.8,4.7-.3-.5-.5-.8-.7-1.1-2.4-3.9-4.5-8.1-7.3-11.7-3-3.8-5.5-7.9-8.5-11.7-3.2-4.1-6.3-8.3-9.5-12.4-1.4-1.8-3.2-3.2-4.4-5.1-2.4-4-4.7-8.2-6.7-12.4a12.17,12.17,0,0,1-.8-8c.4-2,.9-4.1,1.4-6.1a16.55,16.55,0,0,1,9.7-11.8c1.9-.9,3.9-1.8,5.8-2.7a.1.1,0,0,0-.1-.1c-.6.2-1.3.3-1.9.5C10.2,33.4,4.6,37.4,2.2,44.8,1.5,47,.7,49.2.2,51.5A28.1,28.1,0,0,0-.4,58c.1,4.3,1.7,8.2,3.4,12,3.1,6.8,6.4,13.4,9.6,20.1,4.7,9.9,6.9,20.2,5.7,31.3-.9,7.8-3.5,15-5.7,22.3-.8,2.7-1.2,5.1-.3,7.6a4.35,4.35,0,0,0,1.9,2.3,28,28,0,0,0,10.1,3.7c.8.1,1.6.3,2.2-.7.4-.7,1.3-1,2-1.5a9.5,9.5,0,0,0,1.7-1c.7-.6,1.3-1.2,2-1.8.9-.8,1.8-1.6,2.6-2.4a44.2,44.2,0,0,0,3.9-4.7,57.36,57.36,0,0,0,3.2-5.3c.3-.6.2-1.4.5-2a10.43,10.43,0,0,0,1.3-6.2c-.3-3.5-.7-7-1.1-10.5-.1-.8-.7-1.8-.5-2.5.7-1.9,1.3-4,2.6-5.4l.1-.1a20.24,20.24,0,0,0,.6,6.5c1.3,5,2.7,10,3.9,15a82.06,82.06,0,0,1,1.8,8.3,18.52,18.52,0,0,0,2.3,6.6c1.3,2.3,2.5,4.5,3.9,6.7a44.72,44.72,0,0,0,4.5,6,59.46,59.46,0,0,0,6.9,6.4c3.8,3.1,7.6,6.1,11.7,8.9,3.8,2.5,7.8,4.8,11.8,6.9,2.3,1.2,4.8,2.1,7.2,3.1.6.2,1.4.3,1.5-.7a1.64,1.64,0,0,0-.8-1.2,16.32,16.32,0,0,0-1.9-.9c-1.8-.9-3.7-1.7-5.4-2.6-1.5-.8-2.9-1.9-4.4-2.8-4-2.5-8-4.8-11.9-7.4a64.28,64.28,0,0,1-7.6-6.2c-1.8-1.6-3.6-3.3-5.3-5.1-1.5-1.8-2.9-3.7-4.2-5.6a42.66,42.66,0,0,1-5.2-10.2c-1-3.2-1.4-6.5-2.3-9.8-.9-3.7-2-7.4-3-11.2a31.36,31.36,0,0,1-1.2-6.1,62.57,62.57,0,0,1-.1-7.5c2.6-2.5,5.3-4.8,8-7.3h.3c0,.1.1.2,0,.3-1,7.8,2,14.2,7.6,19.3a7,7,0,0,0,4.5,1.7,10.92,10.92,0,0,0,8.8-5.5,7.35,7.35,0,0,1,2.9-2.9,6.42,6.42,0,0,0,2.3-2c2.5-4,4.7-8.3,4.8-13.2a7.07,7.07,0,0,0-.2-2.5,18.21,18.21,0,0,0-8.7-10.9c-4.7-2.6-7.2-2-12.1,1.2a4.36,4.36,0,0,0-.8,1c2.1.6,3.8-.2,5.5-.6,1.4-.3,3-1,4.2-.5,3.6,1.4,6.9,3.5,8,7.5a15.73,15.73,0,0,1-.8,9.8c-1.7,4.7-5.1,7.7-9.3,9.9a1.27,1.27,0,0,1-.6.1c-2.9.2-4.7-1.2-5.1-4.1-.4-3.3-.3-6.6-1.7-9.8a8.3,8.3,0,0,1-.4-5.6c.3-1.3,0-1.7-1.3-1.1A69.32,69.32,0,0,0,56,99.4c-2.9,2.1-5.6,4.4-8.4,6.7.1-4.5.3-9,.5-13.5.1-3,.4-6,.7-9,.3-3.3.8-6.6,1.2-9.9.3-2.7.6-5.4,1-8.1s1-5.6,1.5-8.4.9-5.6,1.5-8.4c1-4.3,2.2-8.5,3.3-12.8.3-1.1.5-2.2.8-3.2a1,1,0,0,1,.7-.6c3.4.1,6.8.3,10.2.3a74.92,74.92,0,0,0,8.2-.3,91.77,91.77,0,0,0,9.1-1.9c3.9-1,7.9-1.8,11.7-3.1a67.72,67.72,0,0,0,8.5-4.3c2-1.1,4-2.4,6-3.5a1.31,1.31,0,0,1,1,.3c1.4,2.6,2.8,5.2,4.1,7.8.9,1.8,1.7,3.6,2.5,5.4s1.5,3.5,2.2,5.3c1,2.6,2,5.2,2.9,7.8a38.11,38.11,0,0,1,1.9,5.7c1.1,5.4,2,10.8,3.2,16.2a66.26,66.26,0,0,1,1.9,17.2c-.1,3.8.1,7.5.2,11.3a39.4,39.4,0,0,1-.7,7.7c-2.8,2.3-5.5,4.8-8.4,6.9a90.86,90.86,0,0,1-8.6,4.9c-1.1.6-1.9.3-2.2-1-.8-3.1-1.5-6.3-2.3-9.4-.7-2.8-1.3-5.6-2.1-8.3-.5-1.8-1.8-2.5-3.7-2.5-3.8-.2-6,2.3-8.4,4.6a5.84,5.84,0,0,0,2.2-.8c1.3-.7,2.5-1.5,3.8-2.2a2.27,2.27,0,0,1,3.6,1.5,30.79,30.79,0,0,1,.8,5.3c.3,4.1.6,8.2.8,12.4a6.07,6.07,0,0,0,2.6,4.6,5.21,5.21,0,0,0,5,.5,20.31,20.31,0,0,0,6.2-4.3c2.3-2.2,4.7-4.3,7-6.5,1.2-1.2,2.2-2.5,3.3-3.7-.5,2.1-.8,4.2-1.3,6.3-.3,1.7-.7,3.3-1.1,5s-1,3.5-1.5,5.3c-1,3.4-1.8,6.8-3,10.1a62.28,62.28,0,0,1-3.8,7.8c-1.4,2.6-2.8,5.1-4.3,7.7s-2.9,5.1-4.4,7.6c-1.9,3.3-3.7,6.5-5.6,9.8-.8,1.5-1.5,3-2.4,4.4-1.3,2-2.8,3.9-4.2,5.9-.5.7-.6,1.5.2,2a1.36,1.36,0,0,0,1.9-.5c1-1.4,2.2-2.8,3.1-4.3,1.5-2.3,3-4.7,4.4-7.1.8-1.4,1.4-2.8,2.2-4.2,1.9-3.2,3.9-6.4,5.8-9.7.9-1.6,1.7-3.3,2.6-4.9,1.3-2.4,2.9-4.6,4.1-7.1a93.74,93.74,0,0,0,3.6-8.7,49.13,49.13,0,0,0,1.7-5c.4-1.3.6-2.6.9-3.9.6-2.5,1.3-5,1.9-7.5.3-1.1.4-2.2.6-3.2.5-2.2,1.2-4.4,1.6-6.6.2-.9.3-1.8.5-2.7.9-.8,1.8-1.5,2.7-2.3a4.08,4.08,0,0,1,.2.7,59,59,0,0,0,1.3,13.9c1.3,5.9,3.5,11.4,7.5,15.9a7.78,7.78,0,0,0,4.5,2.6,13,13,0,0,0,1.9,1.7c.9.4,1.9.6,2.8.9,4.3,1.3,8.7,1.6,12.8-.5,3-1.5,5.9-3.3,8.9-5C177.9,129.8,177.9,129.6,177.8,129.4ZM111.2,17.5c-4.6,2.5-9.1,5.1-13.8,7.5A30.75,30.75,0,0,1,92,26.6c-2.9.7-5.9,1.5-8.9,2A97.69,97.69,0,0,1,71,30.2c-2.9.2-5.8-.3-8.9-.5,1.9-2.8,3.6-5.5,5.6-8.1,1.4-1.8,3.1-3.4,4.6-5.1a38.48,38.48,0,0,1,2.7-3,25.89,25.89,0,0,1,4.2-3.2A54.88,54.88,0,0,1,90.8,5.1c2.5-.9,5-1.6,7.4-2.4,3.1,2.6,6,5.3,9.2,7.7a20.39,20.39,0,0,1,4.3,5C112.3,16.3,112.3,16.9,111.2,17.5Zm39.6,61.8c-.2-5.9.1-11.8,2.1-17.4a38.83,38.83,0,0,1,2.4-4.5c.2-.3.7-.7,1-.6a1.6,1.6,0,0,1,.7.9c1.6,4.8,1.3,9.5-.1,14.4-1.1,3.8-3.3,7-4.8,10.5a17.38,17.38,0,0,1-1.1,1.5C150.9,82.3,150.8,80.8,150.8,79.3Z"></path> </svg> 