<?xml version="1.0" encoding="UTF-8" standalone="no"?>
<svg
   xmlns:dc="http://purl.org/dc/elements/1.1/"
   xmlns:cc="http://creativecommons.org/ns#"
   xmlns:rdf="http://www.w3.org/1999/02/22-rdf-syntax-ns#"
   xmlns:svg="http://www.w3.org/2000/svg"
   xmlns="http://www.w3.org/2000/svg"
   viewBox="0 0 377.95334 377.95334"
   height="377.95334"
   width="377.95334"
   xml:space="preserve"
   id="svg2"
   version="1.1"><metadata
     id="metadata8"><rdf:RDF><cc:Work
         rdf:about=""><dc:format>image/svg+xml</dc:format><dc:type
           rdf:resource="http://purl.org/dc/dcmitype/StillImage" /></cc:Work></rdf:RDF></metadata><defs
     id="defs6"><clipPath
       id="clipPath18"
       clipPathUnits="userSpaceOnUse"><path
         id="path16"
         d="M 0,283.465 H 283.465 V 0 H 0 Z" /></clipPath></defs><g
     transform="matrix(1.3333333,0,0,-1.3333333,0,377.95333)"
     id="g10"><g
       id="g12"><g
         clip-path="url(#clipPath18)"
         id="g14"><g
           transform="translate(40.3908,234.3551)"
           id="g20"><path
             id="path22"
             style="fill:#231f20;fill-opacity:1;fill-rule:nonzero;stroke:none"
             d="m 0,0 c -2.831,-1.345 -5.643,-2.729 -8.496,-4.026 -7.565,-3.442 -12.287,-9.202 -14.191,-17.278 -0.703,-2.984 -1.391,-5.972 -2.039,-8.968 -0.869,-4.02 -0.533,-8.071 1.212,-11.68 2.996,-6.199 6.28,-12.283 9.843,-18.173 1.669,-2.758 4.4,-4.85 6.424,-7.421 4.714,-5.992 9.269,-12.108 13.93,-18.142 4.308,-5.577 8.071,-11.536 12.414,-17.11 4.126,-5.296 7.178,-11.429 10.703,-17.194 0.246,-0.401 0.5,-0.796 0.99,-1.577 3.051,3.026 5.956,5.906 8.86,8.787 0.592,0.588 1.132,1.24 1.777,1.761 4.229,3.414 8.341,6.998 12.769,10.133 3.421,2.423 7.174,4.416 10.924,6.315 1.852,0.939 2.321,0.424 1.845,-1.551 -0.681,-2.822 -0.572,-5.614 0.653,-8.189 2.173,-4.563 1.938,-9.494 2.547,-14.301 0.535,-4.223 3.202,-6.382 7.469,-6.05 0.276,0.022 0.587,0.004 0.817,0.126 6.187,3.305 11.177,7.701 13.619,14.551 1.673,4.693 2.381,9.542 1.135,14.308 -1.546,5.913 -6.462,8.948 -11.704,11.032 -1.675,0.665 -4.067,-0.32 -6.094,-0.732 -2.559,-0.52 -5.021,-1.745 -8.117,-0.839 0.468,0.602 0.723,1.176 1.164,1.462 7.203,4.671 10.913,5.541 17.792,1.737 6.459,-3.572 10.481,-9.064 12.689,-15.965 0.366,-1.144 0.263,-2.463 0.249,-3.7 -0.078,-7.264 -3.262,-13.446 -6.997,-19.376 -0.765,-1.215 -2.124,-2.177 -3.406,-2.915 -1.813,-1.042 -3.164,-2.317 -4.211,-4.176 -2.815,-5.001 -7.49,-7.576 -12.957,-8.089 -2.143,-0.201 -4.987,0.947 -6.618,2.45 -8.215,7.571 -12.661,16.814 -11.152,28.308 0.017,0.13 -0.035,0.269 -0.056,0.41 -0.132,-0.009 -0.306,0.034 -0.38,-0.033 -5.403,-4.934 -11.015,-9.668 -16.083,-14.926 -1.95,-2.023 -2.847,-5.173 -3.839,-7.948 -0.355,-0.994 0.524,-2.382 0.661,-3.61 0.575,-5.129 1.158,-10.258 1.586,-15.4 0.265,-3.18 -0.383,-6.222 -1.927,-9.083 -0.467,-0.865 -0.251,-2.1 -0.721,-2.963 -1.456,-2.673 -2.945,-5.352 -4.698,-7.832 -1.707,-2.416 -3.699,-4.641 -5.677,-6.849 -1.155,-1.29 -2.535,-2.377 -3.802,-3.567 -0.957,-0.899 -1.835,-1.893 -2.861,-2.701 -0.743,-0.586 -1.699,-0.892 -2.509,-1.404 -1.03,-0.651 -2.354,-1.177 -2.93,-2.132 -0.896,-1.486 -2.039,-1.223 -3.237,-1.054 -5.3,0.749 -10.157,2.814 -14.76,5.41 -1.202,0.677 -2.299,2.115 -2.75,3.44 -1.263,3.707 -0.723,7.227 0.45,11.129 3.239,10.772 7.157,21.355 8.409,32.727 1.783,16.207 -1.487,31.284 -8.379,45.79 -4.667,9.822 -9.562,19.538 -14.042,29.443 -2.519,5.569 -4.888,11.328 -5.045,17.572 -0.08,3.156 0.295,6.382 0.923,9.484 0.675,3.331 1.823,6.574 2.877,9.819 3.537,10.889 11.701,16.766 22.068,20.211 0.916,0.304 1.869,0.499 2.805,0.745 z" /></g><g
           transform="translate(233.1559,155.7389)"
           id="g24"><path
             id="path26"
             style="fill:#231f20;fill-opacity:1;fill-rule:nonzero;stroke:none"
             d="m 0,0 c 0.794,1.102 1.332,1.628 1.609,2.267 2.252,5.192 5.501,9.862 7.082,15.447 2.02,7.138 2.449,14.076 0.09,21.124 C 8.6,39.379 8.176,40.12 7.745,40.213 7.344,40.3 6.596,39.757 6.324,39.299 5.048,37.158 3.561,35.064 2.737,32.746 -0.195,24.5 -0.722,15.907 -0.405,7.236 -0.325,5.049 -0.163,2.866 0,0 m 39.507,-67.103 c -4.325,-2.469 -8.536,-5.173 -13.003,-7.349 -6.075,-2.959 -12.44,-2.601 -18.779,-0.673 -1.396,0.425 -2.871,0.683 -4.166,1.313 -0.951,0.462 -1.667,1.406 -2.848,2.454 -2.285,0.335 -4.718,1.704 -6.584,3.802 -5.942,6.684 -9.144,14.635 -11.041,23.333 -1.472,6.746 -2.003,13.488 -1.905,20.336 0.004,0.255 -0.112,0.511 -0.237,1.044 -2.493,-2.203 -4.932,-4.149 -7.117,-6.346 -2.45,-2.463 -4.555,-5.269 -7.018,-7.716 -3.312,-3.291 -6.903,-6.301 -10.223,-9.584 -2.659,-2.628 -5.536,-4.792 -9.024,-6.227 -2.286,-0.941 -5.381,-0.77 -7.297,0.762 -2.194,1.752 -3.692,3.781 -3.842,6.761 -0.305,6.047 -0.725,12.09 -1.236,18.123 -0.222,2.614 -0.614,5.241 -1.241,7.785 -0.644,2.61 -2.892,3.467 -5.278,2.191 -1.896,-1.013 -3.698,-2.202 -5.569,-3.266 -0.98,-0.557 -2.018,-1.012 -3.176,-1.213 3.56,3.287 6.824,6.975 12.368,6.697 2.727,-0.136 4.655,-1.165 5.389,-3.731 1.147,-4.008 2.038,-8.09 3.037,-12.141 1.132,-4.592 2.267,-9.184 3.394,-13.777 0.459,-1.867 1.619,-2.378 3.244,-1.493 4.269,2.326 8.768,4.355 12.668,7.198 5.624,4.098 10.608,9.073 16.231,13.17 3.954,2.881 5.632,6.089 5.12,10.99 -0.637,6.103 1.667,11.96 2.288,17.977 0.157,1.521 0.067,3.076 0.318,4.577 0.821,4.892 2.113,9.575 4.712,13.946 1.756,2.952 2.667,6.406 3.96,9.633 2.18,5.439 6.007,9.518 10.817,12.672 2.232,1.464 5.487,0.785 7.276,-1.177 0.355,-0.389 0.657,-0.914 0.771,-1.423 0.712,-3.181 1.405,-6.366 2.025,-9.565 C 14.5,27.021 14.087,22.454 11.871,17.603 9.073,11.476 5.787,5.754 1.971,0.271 0.428,-1.946 0.45,-4.397 0.689,-6.96 c 0.177,-1.9 -0.013,-3.833 -0.027,-5.752 -0.004,-0.552 -0.076,-1.137 0.071,-1.654 3.281,-11.499 6.577,-22.993 9.895,-34.482 2.275,-7.875 7.581,-12.676 15.384,-14.723 3.482,-0.914 7.064,-1.448 10.602,-2.149 0.868,-0.172 1.74,-0.324 2.61,-0.485 0.094,-0.299 0.189,-0.599 0.283,-0.898" /></g><g
           transform="translate(166.4137,161.3556)"
           id="g28"><path
             id="path30"
             style="fill:#231f20;fill-opacity:1;fill-rule:nonzero;stroke:none"
             d="m 0,0 c -1.403,3.884 -2.547,7.285 -3.877,10.612 -0.477,1.193 -1.402,2.207 -2.391,3.711 0.168,0.742 0.96,1.155 2.292,0.971 2.415,-0.332 4.843,-0.571 7.268,-0.827 2.785,-0.295 3.86,-1.255 3.463,-3.996 C 6.156,6.328 3.99,2.998 0,0" /></g><g
           transform="translate(102.9645,235.5898)"
           id="g32"><path
             id="path34"
             style="fill:#231f20;fill-opacity:1;fill-rule:nonzero;stroke:none"
             d="m 0,0 c 4.517,-0.287 8.778,-0.998 12.972,-0.718 5.932,0.394 11.841,1.374 17.71,2.382 4.378,0.752 8.691,1.895 13.009,2.958 2.686,0.661 5.534,1.099 7.949,2.33 6.828,3.479 13.454,7.346 20.199,10.989 1.577,0.852 1.61,1.772 0.701,3.092 -1.822,2.646 -3.524,5.256 -6.253,7.281 -4.696,3.483 -8.998,7.487 -13.492,11.295 C 49.246,38.451 45.591,37.328 41.985,36.068 36.108,34.015 30.22,31.944 24.979,28.513 22.826,27.104 20.764,25.519 18.85,23.807 17.375,22.488 16.212,20.83 14.88,19.35 12.634,16.853 10.167,14.523 8.15,11.858 5.32,8.118 2.818,4.136 0,0 m -0.453,7.592 c 4.82,5.487 9.673,10.876 14.371,16.395 5.45,6.401 12.576,10.122 20.331,12.925 5.707,2.063 11.402,4.158 17.111,6.215 1.371,0.494 2.676,0.463 3.829,-0.638 0.886,-0.846 1.849,-1.617 2.809,-2.383 0.2,-0.16 0.535,-0.209 0.81,-0.214 1.265,-0.022 2.531,-0.01 3.796,-0.01 -0.093,-0.166 -0.187,-0.332 -0.281,-0.497 0.352,-0.609 0.555,-1.496 1.084,-1.771 1.347,-0.702 2.671,-1.1 3.471,-2.728 0.655,-1.331 2.406,-2.091 3.296,-3.362 1.682,-2.403 3.841,-4.231 6.004,-6.166 1.553,-1.39 2.614,-3.316 4.636,-4.318 0.455,-0.225 0.583,-1.097 0.993,-1.942 -0.578,0 -1.249,0.018 -1.917,-0.005 -1.055,-0.035 -1.561,-0.576 -1.03,-1.538 1.275,-2.31 2.775,-4.503 3.953,-6.857 1.934,-3.864 3.707,-7.809 5.506,-11.739 1.654,-3.613 3.426,-7.187 4.836,-10.894 1.831,-4.811 3.346,-9.74 5.018,-14.61 0.493,-1.435 1.224,-2.809 1.557,-4.275 0.637,-2.802 1.051,-5.653 1.59,-8.478 0.27,-1.415 0.633,-2.812 0.917,-4.224 0.711,-3.541 1.389,-7.089 2.104,-10.629 0.698,-3.454 1.591,-6.879 2.096,-10.359 0.52,-3.581 0.745,-7.211 0.966,-10.827 0.19,-3.095 0.231,-6.2 0.264,-9.302 0.044,-4.124 -0.259,-8.273 0.097,-12.368 0.385,-4.432 -0.442,-8.683 -1.184,-12.953 -0.567,-3.261 -1.6,-6.441 -2.368,-9.671 -0.372,-1.56 -0.542,-3.168 -0.928,-4.724 -0.91,-3.674 -1.913,-7.326 -2.843,-10.995 -0.477,-1.882 -0.779,-3.811 -1.335,-5.667 -0.746,-2.49 -1.569,-4.967 -2.527,-7.385 -1.694,-4.276 -3.331,-8.591 -5.341,-12.724 -1.736,-3.569 -3.998,-6.884 -5.951,-10.353 -1.34,-2.379 -2.456,-4.882 -3.834,-7.237 -2.776,-4.745 -5.7,-9.405 -8.486,-14.145 -1.171,-1.994 -2.049,-4.157 -3.229,-6.145 -2.097,-3.531 -4.266,-7.025 -6.517,-10.462 -1.422,-2.173 -3.046,-4.215 -4.58,-6.316 -0.716,-0.982 -1.722,-1.403 -2.747,-0.746 -1.143,0.735 -1.055,1.865 -0.3,2.907 2.074,2.864 4.275,5.645 6.215,8.595 1.35,2.053 2.308,4.356 3.518,6.505 2.699,4.797 5.436,9.572 8.175,14.346 2.136,3.723 4.318,7.42 6.441,11.15 2.125,3.736 4.283,7.458 6.278,11.263 1.957,3.733 4.039,7.449 5.497,11.38 1.781,4.802 2.969,9.819 4.414,14.743 0.756,2.576 1.577,5.135 2.25,7.732 0.624,2.408 1.116,4.851 1.62,7.289 0.653,3.157 1.093,6.367 1.927,9.475 1.222,4.554 1.765,9.154 1.677,13.844 -0.103,5.508 -0.471,11.024 -0.29,16.523 0.282,8.55 -0.998,16.859 -2.829,25.17 -1.732,7.861 -2.963,15.829 -4.632,23.706 -0.602,2.842 -1.791,5.569 -2.789,8.321 -1.379,3.807 -2.798,7.601 -4.263,11.377 -1.021,2.63 -2.112,5.236 -3.239,7.825 -1.151,2.643 -2.31,5.287 -3.601,7.865 -1.922,3.836 -3.939,7.627 -5.994,11.396 -0.181,0.333 -1.107,0.647 -1.406,0.479 -2.947,-1.65 -5.783,-3.496 -8.75,-5.106 C 61.741,8.046 57.749,5.529 53.417,3.988 47.855,2.008 42.007,0.792 36.247,-0.615 c -4.432,-1.082 -8.879,-2.22 -13.389,-2.831 -3.961,-0.535 -8.019,-0.5 -12.033,-0.485 -4.98,0.02 -9.959,0.299 -14.94,0.394 -0.371,0.007 -0.975,-0.501 -1.092,-0.882 -0.474,-1.561 -0.783,-3.171 -1.187,-4.754 -1.597,-6.257 -3.313,-12.486 -4.773,-18.774 -0.942,-4.059 -1.517,-8.202 -2.251,-12.308 -0.738,-4.125 -1.544,-8.239 -2.182,-12.378 -0.606,-3.928 -1.042,-7.882 -1.537,-11.826 -0.604,-4.82 -1.262,-9.634 -1.765,-14.465 -0.457,-4.397 -0.859,-8.806 -1.071,-13.22 -0.388,-8.05 -0.672,-16.106 -0.888,-24.162 -0.113,-4.225 -0.214,-8.472 0.103,-12.678 0.225,-3.004 1.041,-5.986 1.793,-8.928 1.398,-5.464 3.028,-10.871 4.398,-16.342 1.19,-4.751 1.84,-9.656 3.304,-14.316 1.677,-5.337 4.427,-10.268 7.57,-14.928 1.913,-2.837 3.86,-5.686 6.111,-8.255 2.357,-2.691 4.99,-5.173 7.693,-7.532 3.615,-3.153 7.223,-6.374 11.18,-9.069 5.651,-3.85 11.622,-7.239 17.443,-10.847 2.145,-1.329 4.184,-2.838 6.391,-4.05 2.575,-1.414 5.279,-2.598 7.933,-3.868 0.944,-0.452 1.991,-0.747 2.832,-1.336 0.577,-0.403 1.251,-1.203 1.23,-1.803 -0.048,-1.323 -1.263,-1.3 -2.127,-0.956 -3.557,1.419 -7.21,2.695 -10.562,4.506 -5.873,3.173 -11.74,6.425 -17.257,10.157 -5.925,4.007 -11.545,8.481 -17.102,12.988 -3.578,2.903 -6.991,6.06 -10.126,9.425 -2.509,2.694 -4.624,5.783 -6.663,8.859 -2.092,3.155 -3.945,6.473 -5.781,9.785 -1.675,3.022 -2.786,6.221 -3.329,9.687 -0.644,4.108 -1.675,8.164 -2.7,12.203 -1.858,7.321 -3.904,14.595 -5.742,21.921 -1.322,5.266 -0.783,10.623 -0.523,15.97 0.293,6.026 0.225,12.07 0.567,18.093 0.297,5.227 0.975,10.433 1.427,15.653 0.23,2.65 0.256,5.318 0.518,7.964 0.289,2.931 0.744,5.846 1.123,8.769 0.519,4.019 0.934,8.054 1.577,12.053 0.873,5.436 1.835,10.862 2.915,16.261 1.339,6.697 2.748,13.384 4.302,20.035 0.903,3.866 2.436,7.602 3.163,11.492 0.834,4.466 2.786,8.369 4.978,12.235 1.217,2.147 2.512,2.307 3.769,0.75" /></g></g></g></g></svg>