<svg width="119" height="8" viewBox="0 0 119 8" fill="none" xmlns="http://www.w3.org/2000/svg">
<path d="M118.587 5.96543L116.432 6.10948C114.277 6.25352 109.869 6.54199 105.556 6.01603C101.146 5.49045 96.8295 4.15042 92.4165 3.08214C88.1015 2.01347 83.6895 1.21653 79.3793 1.36895C75.069 1.52136 70.6644 2.62389 66.3584 3.86171C61.9543 5.09992 57.6488 6.47341 53.2416 6.89756C48.9324 7.32133 44.5215 6.79574 40.2075 5.99843C35.8936 5.20111 31.4806 4.13282 27.1656 3.06416C22.7526 1.99587 18.4376 0.9272 14.0309 1.48702C9.72219 2.04647 5.32186 4.2344 3.17068 5.32818L1.01949 6.42195" stroke="#B39F55"/>
</svg>
